<svg width="350" height="130" viewBox="0 0 350 130" fill="none" xmlns="http://www.w3.org/2000/svg">
<g clip-path="url(#clip0_1131_1212)">
<path d="M110.122 97.282C83.075 91.282 55.022 98.157 27.322 98.612C18.1353 98.7862 8.96128 97.8481 0 95.818L0 130H165.152C149.961 114.333 131.285 101.979 110.122 97.282Z" fill="#C9E3FC"/>
<path d="M67.8 78.974C86.889 72.316 102.869 59.146 120.159 48.668C137.449 38.19 158.077 30.144 177.619 35.324C203.948 42.303 218.275 69.646 232.688 92.758C240.843 105.823 249.948 118.271 259.93 130H350V0H0V72.883C20.681 83.755 45.674 86.69 67.8 78.974Z" fill="#58AFFF"/>
<path d="M232.686 92.758C218.272 69.646 203.946 42.304 177.617 35.324C158.075 30.144 137.447 38.191 120.157 48.668C102.867 59.145 86.887 72.315 67.8 78.974C45.674 86.69 20.681 83.755 0 72.883V95.818C8.96128 97.8481 18.1353 98.7862 27.322 98.612C55.022 98.157 83.075 91.28 110.122 97.282C131.285 101.982 149.961 114.332 165.152 130H259.93C249.948 118.271 240.842 105.823 232.686 92.758Z" fill="#83BEFF"/>
<path d="M178.062 19.864H315.317V20.918C315.317 21.881 315.127 22.8345 314.759 23.7242C314.39 24.6139 313.85 25.4223 313.169 26.1032C312.488 26.7841 311.68 27.3243 310.79 27.6928C309.901 28.0613 308.947 28.251 307.984 28.251H185.4C183.455 28.251 181.59 27.4784 180.215 26.1032C178.84 24.728 178.067 22.8628 178.067 20.918V19.864H178.062Z" fill="#754727"/>
<path d="M178.062 19.864H274.9V20.918C274.9 21.881 274.71 22.8345 274.342 23.7242C273.973 24.6139 273.433 25.4223 272.752 26.1032C272.071 26.7841 271.263 27.3243 270.373 27.6928C269.484 28.0613 268.53 28.251 267.567 28.251H185.4C183.455 28.251 181.59 27.4784 180.215 26.1032C178.84 24.728 178.067 22.8628 178.067 20.918V19.864H178.062Z" fill="#D3834C"/>
<path d="M272.15 28.252H186.45V113.952H272.15V28.252Z" fill="#D3834C"/>
<path d="M272.15 28.252H186.45V32.049H272.15V28.252Z" fill="#915F3A"/>
<path d="M272.151 113.952H308.264V28.252H272.151V113.952Z" fill="#754727"/>
<path d="M272.15 109.89H184.734V113.952H272.15V109.89Z" fill="#915F3A"/>
<path d="M272.15 113.953H309.598V109.891H272.15V113.953Z" fill="#754727"/>
<path d="M192.8 130H192.5C190.947 130 189.687 128.216 189.687 126.015V113.952H197.487L195.541 126.852C195.272 128.687 194.125 130 192.8 130Z" fill="#915F3A"/>
<path d="M269.043 130H269.338C270.891 130 272.151 128.216 272.151 126.015V113.952H264.351L266.297 126.852C266.569 128.687 267.716 130 269.043 130Z" fill="#915F3A"/>
<path d="M227.112 130H226.817C225.264 130 224.004 128.216 224.004 126.015V113.952H231.804L229.858 126.852C229.585 128.687 228.439 130 227.112 130Z" fill="#754727"/>
<path d="M303.356 130H303.651C305.204 130 306.464 128.216 306.464 126.015V113.952H298.664L300.61 126.852C300.883 128.687 302.029 130 303.356 130Z" fill="#754727"/>
<path d="M269.246 34.336H189.354V55.759H269.246V34.336Z" stroke="#915F3A" stroke-miterlimit="10"/>
<path d="M269.246 59.654H189.354V81.077H269.246V59.654Z" stroke="#915F3A" stroke-miterlimit="10"/>
<path d="M269.246 84.972H189.354V106.395H269.246V84.972Z" stroke="#915F3A" stroke-miterlimit="10"/>
<path d="M236.795 36.624H216.169C214.881 36.624 213.836 37.6685 213.836 38.957V39.629C213.836 40.9175 214.881 41.962 216.169 41.962H236.795C238.083 41.962 239.128 40.9175 239.128 39.629V38.957C239.128 37.6685 238.083 36.624 236.795 36.624Z" fill="white"/>
<path d="M236.795 89.238H216.169C214.881 89.238 213.836 90.2825 213.836 91.571V92.243C213.836 93.5315 214.881 94.576 216.169 94.576H236.795C238.083 94.576 239.128 93.5315 239.128 92.243V91.571C239.128 90.2825 238.083 89.238 236.795 89.238Z" fill="white"/>
<path d="M173.8 76.462H181.179V91.685C181.179 92.0157 181.048 92.3329 180.814 92.5668C180.58 92.8006 180.263 92.932 179.932 92.932H173.8V76.462Z" fill="#066D76"/>
<path d="M184.922 74.972L174.284 76.045L174.391 73.599H160.256L155.267 111.599H172.727L173.05 104.214C173.584 93.4055 177.769 83.0979 184.921 74.976L184.922 74.972Z" fill="#E08D14"/>
<path d="M239.7 66.982H219.78V63.482H239.7C239.93 63.4819 240.157 63.527 240.37 63.6149C240.582 63.7027 240.775 63.8315 240.937 63.994C241.099 64.1564 241.228 64.3493 241.316 64.5615C241.404 64.7738 241.449 65.0013 241.449 65.231C241.449 65.4607 241.404 65.6882 241.316 65.9005C241.228 66.1127 241.099 66.3056 240.937 66.468C240.775 66.6305 240.582 66.7593 240.37 66.8471C240.157 66.935 239.93 66.9801 239.7 66.98V66.982Z" fill="#066D76"/>
<path d="M214.974 60.02H208.299V70.47H214.974V60.02Z" fill="#066D76"/>
<path d="M209 73.6H203.415V57.4H209C209.699 57.4 210.37 57.6777 210.864 58.1721C211.358 58.6664 211.636 59.3369 211.636 60.036V70.962C211.636 71.3083 211.568 71.6513 211.436 71.9714C211.304 72.2914 211.109 72.5822 210.865 72.8272C210.62 73.0722 210.329 73.2666 210.009 73.3991C209.689 73.5317 209.346 73.6 209 73.6Z" fill="#069183"/>
<path d="M197.088 79.6H161.818C159.456 79.6 157.191 78.6617 155.521 76.9915C153.85 75.3213 152.912 73.056 152.912 70.694V60.31C152.912 57.948 153.85 55.6827 155.521 54.0125C157.191 52.3423 159.456 51.404 161.818 51.404H197.088C199.45 51.404 201.715 52.3423 203.386 54.0125C205.056 55.6827 205.994 57.948 205.994 60.31V70.693C205.995 71.8628 205.765 73.0212 205.318 74.1021C204.87 75.183 204.214 76.1651 203.387 76.9923C202.56 77.8194 201.578 78.4754 200.497 78.9227C199.416 79.37 198.258 79.6008 197.088 79.6Z" fill="#FFB942"/>
<path d="M196.25 51.404H193.429V79.599H196.25V51.404Z" fill="#E08D14"/>
<path d="M165.247 58.917H157.5C157.099 58.917 156.714 58.7576 156.43 58.4738C156.146 58.1901 155.987 57.8053 155.987 57.404C155.987 57.0027 156.146 56.6179 156.43 56.3341C156.714 56.0504 157.099 55.891 157.5 55.891H165.245C165.444 55.8906 165.64 55.9293 165.824 56.0049C166.007 56.0806 166.174 56.1916 166.315 56.3317C166.456 56.4719 166.567 56.6383 166.644 56.8216C166.72 57.0049 166.76 57.2014 166.76 57.4C166.761 57.599 166.722 57.7962 166.646 57.9802C166.57 58.1643 166.459 58.3315 166.318 58.4724C166.178 58.6134 166.011 58.7252 165.827 58.8014C165.643 58.8777 165.446 58.917 165.247 58.917Z" fill="#E08D14"/>
<path d="M165.361 61.289H157.387C156.615 61.289 155.989 61.9149 155.989 62.687V62.917C155.989 63.6891 156.615 64.315 157.387 64.315H165.361C166.133 64.315 166.759 63.6891 166.759 62.917V62.687C166.759 61.9149 166.133 61.289 165.361 61.289Z" fill="#E08D14"/>
<path d="M165.361 66.688H157.387C156.615 66.688 155.989 67.3139 155.989 68.086V68.316C155.989 69.0881 156.615 69.714 157.387 69.714H165.361C166.133 69.714 166.759 69.0881 166.759 68.316V68.086C166.759 67.3139 166.133 66.688 165.361 66.688Z" fill="#E08D14"/>
<path d="M165.361 72.086H157.387C156.615 72.086 155.989 72.7119 155.989 73.484V73.714C155.989 74.4861 156.615 75.112 157.387 75.112H165.361C166.133 75.112 166.759 74.4861 166.759 73.714V73.484C166.759 72.7119 166.133 72.086 165.361 72.086Z" fill="#E08D14"/>
<path d="M222.182 72.086H214.809C214.427 72.086 214.06 71.9341 213.789 71.6637C213.519 71.3932 213.367 71.0264 213.367 70.644V59.824C213.367 59.4416 213.519 59.0748 213.789 58.8044C214.06 58.5339 214.427 58.382 214.809 58.382H222.182C222.564 58.382 222.931 58.5339 223.202 58.8044C223.472 59.0748 223.624 59.4416 223.624 59.824V70.643C223.624 70.8325 223.587 71.0201 223.515 71.1951C223.442 71.3702 223.336 71.5293 223.202 71.6633C223.068 71.7973 222.909 71.9036 222.734 71.9761C222.559 72.0487 222.371 72.086 222.182 72.086Z" fill="#069183"/>
<path d="M222.086 60.085H214.906V62.198H222.086V60.085Z" fill="#066D76"/>
<path d="M222.086 64.188H214.906V66.301H222.086V64.188Z" fill="#066D76"/>
<path d="M222.086 68.291H214.906V70.404H222.086V68.291Z" fill="#066D76"/>
<path d="M183.808 122.205H149.708V115.069C149.707 114.307 149.874 113.554 150.198 112.864C150.523 112.175 150.995 111.565 151.583 111.08C152.498 110.321 153.651 109.906 154.84 109.907H178.673C180.038 109.912 181.345 110.458 182.308 111.426C183.27 112.394 183.808 113.704 183.805 115.069L183.808 122.205Z" fill="#FFB942"/>
<path d="M178.848 130H154.671C153.431 130.001 152.236 129.535 151.325 128.694C150.815 128.226 150.408 127.656 150.131 127.022C149.853 126.388 149.71 125.703 149.711 125.011V122.205H183.811V125.011C183.812 125.726 183.66 126.433 183.364 127.084C183.068 127.735 182.636 128.315 182.096 128.784C181.197 129.57 180.042 130.002 178.848 130Z" fill="#066D76"/>
<path d="M319.666 34.336H315.317V126.102H319.666V34.336Z" fill="white"/>
<path d="M319.665 34.336H317.491V126.102H319.665V34.336Z" fill="#B3C9E8"/>
<path d="M309.049 124.63H325.934C327.358 124.631 328.722 125.197 329.729 126.204C330.735 127.211 331.3 128.576 331.3 130H303.679C303.679 129.295 303.818 128.597 304.088 127.945C304.358 127.293 304.753 126.701 305.252 126.203C305.75 125.704 306.342 125.309 306.994 125.039C307.646 124.769 308.344 124.63 309.049 124.63Z" fill="#B3C9E8"/>
<path d="M309.049 124.63H315.921C316.626 124.63 317.324 124.769 317.976 125.039C318.628 125.309 319.22 125.704 319.718 126.203C320.217 126.701 320.612 127.293 320.882 127.945C321.152 128.597 321.291 129.295 321.291 130H303.679C303.679 129.295 303.818 128.597 304.088 127.945C304.358 127.293 304.753 126.701 305.252 126.203C305.75 125.704 306.342 125.309 306.994 125.039C307.646 124.769 308.344 124.63 309.049 124.63Z" fill="white"/>
<path d="M331.306 6.963H323.416H303.676L295.584 40.524H326.561H339.399L331.306 6.963Z" fill="#D34242"/>
<path d="M316.741 8.547V39.047C316.741 39.2459 316.82 39.4367 316.961 39.5773C317.101 39.718 317.292 39.797 317.491 39.797C317.69 39.797 317.881 39.718 318.021 39.5773C318.162 39.4367 318.241 39.2459 318.241 39.047V8.547C318.241 8.34808 318.162 8.15732 318.021 8.01667C317.881 7.87602 317.69 7.797 317.491 7.797C317.292 7.797 317.101 7.87602 316.961 8.01667C316.82 8.15732 316.741 8.34808 316.741 8.547Z" fill="#FF6B6B"/>
<path d="M322.741 8.547L326.741 39.047C326.865 39.99 328.366 40.003 328.241 39.047L324.241 8.547C324.117 7.604 322.616 7.591 322.741 8.547Z" fill="#FF6B6B"/>
<path d="M328.768 8.746L335.768 39.246C335.984 40.186 337.43 39.788 337.214 38.846L330.214 8.346C329.998 7.406 328.552 7.804 328.768 8.746Z" fill="#FF6B6B"/>
<path d="M304.768 8.347L297.768 38.847C297.552 39.787 298.998 40.188 299.214 39.247L306.214 8.747C306.43 7.807 304.984 7.406 304.768 8.347Z" fill="#FF6B6B"/>
<path d="M310.741 8.547L306.741 39.047C306.616 40.001 308.117 39.992 308.241 39.047L312.241 8.547C312.366 7.593 310.865 7.602 310.741 8.547Z" fill="#FF6B6B"/>
</g>
<defs>
<clipPath id="clip0_1131_1212">
<rect width="350" height="130" fill="white"/>
</clipPath>
</defs>
</svg>